{
  "accessors": [
    {
      "bufferView": 2,
      "componentType": 5126,
      "count": 65532,
      "max": [
        2.160367012023926,
        -23.322786331176758,
        2.4945120811462402
      ],
      "min": [
        -3.1295158863067627,
        -29.674495697021484,
        -3.632659912109375
      ],
      "type": "VEC3"
    },
    {
      "bufferView": 2,
      "byteOffset": 786384,
      "componentType": 5126,
      "count": 65532,
      "max": [
        0.9999906420707703,
        0.9998286366462708,
        0.9996955394744873
      ],
      "min": [
        -0.9804455637931824,
        -0.9999547004699707,
        -0.9999887347221375
      ],
      "type": "VEC3"
    },
    {
      "bufferView": 1,
      "componentType": 5126,
      "count": 65532,
      "max": [
        0.8813390135765076,
        0.9731259942054749
      ],
      "min": [
        0.0032079999800771475,
        0.00367600005120039
      ],
      "type": "VEC2"
    },
    {
      "bufferView": 0,
      "componentType": 5125,
      "count": 368568,
      "type": "SCALAR"
    },
    {
      "bufferView": 2,
      "byteOffset": 1572768,
      "componentType": 5126,
      "count": 65532,
      "max": [
        1.9442780017852783,
        -23.402257919311523,
        2.6625359058380127
      ],
      "min": [
        -3.4046120643615723,
        -29.521570205688477,
        -3.485093116760254
      ],
      "type": "VEC3"
    },
    {
      "bufferView": 2,
      "byteOffset": 2359152,
      "componentType": 5126,
      "count": 65532,
      "max": [
        0.9927583932876587,
        0.9999368190765381,
        0.9999929666519165
      ],
      "min": [
        -0.9999900460243225,
        -0.9996591210365295,
        -0.9999552369117737
      ],
      "type": "VEC3"
    },
    {
      "bufferView": 1,
      "byteOffset": 524256,
      "componentType": 5126,
      "count": 65532,
      "max": [
        0.9934960007667542,
        0.9885900020599365
      ],
      "min": [
        0.07306099683046341,
        0.005541000049561262
      ],
      "type": "VEC2"
    },
    {
      "bufferView": 0,
      "byteOffset": 1474272,
      "componentType": 5125,
      "count": 367161,
      "type": "SCALAR"
    },
    {
      "bufferView": 2,
      "byteOffset": 3145536,
      "componentType": 5126,
      "count": 32680,
      "max": [
        1.0954890251159668,
        -23.326662063598633,
        2.6586050987243652
      ],
      "min": [
        -3.4038589000701904,
        -29.718143463134766,
        -3.632659912109375
      ],
      "type": "VEC3"
    },
    {
      "bufferView": 2,
      "byteOffset": 3537696,
      "componentType": 5126,
      "count": 32680,
      "max": [
        0.999966025352478,
        0.999919593334198,
        0.9999966621398926
      ],
      "min": [
        -0.9997766017913818,
        -0.9999428391456604,
        -0.9999512434005737
      ],
      "type": "VEC3"
    },
    {
      "bufferView": 1,
      "byteOffset": 1048512,
      "componentType": 5126,
      "count": 32680,
      "max": [
        0.9958800077438354,
        0.9917410016059875
      ],
      "min": [
        0.006816999986767769,
        0.0034860000014305115
      ],
      "type": "VEC2"
    },
    {
      "bufferView": 0,
      "byteOffset": 2942916,
      "componentType": 5125,
      "count": 132696,
      "type": "SCALAR"
    }
  ],
  "asset": {
    "extras": {
      "author": "The Royal Museums of Art and History (https://sketchfab.com/kmkg-mrah)",
      "license": "CC-BY-NC-SA-4.0 (http://creativecommons.org/licenses/by-nc-sa/4.0/)",
      "source": "https://sketchfab.com/3d-models/decorated-vase-pg28081142-53b33186c5984e6daf2f83411075fdc9",
      "title": "Decorated vase - PG.2808.1142"
    },
    "generator": "Sketchfab-12.64.0",
    "version": "2.0"
  },
  "bufferViews": [
    {
      "buffer": 0,
      "byteLength": 3473700,
      "name": "floatBufferViews",
      "target": 34963
    },
    {
      "buffer": 0,
      "byteLength": 1309952,
      "byteOffset": 3473700,
      "byteStride": 8,
      "name": "floatBufferViews",
      "target": 34962
    },
    {
      "buffer": 0,
      "byteLength": 3929856,
      "byteOffset": 4783652,
      "byteStride": 12,
      "name": "floatBufferViews",
      "target": 34962
    }
  ],
  "buffers": [
    {
      "byteLength": 8713508,
      "uri": "scene.bin"
    }
  ],
  "images": [
    {
      "uri": "textures/3D_Model_baseColor.jpeg"
    }
  ],
  "materials": [
    {
      "doubleSided": true,
      "name": "3D_Model",
      "pbrMetallicRoughness": {
        "baseColorTexture": {
          "index": 0
        },
        "metallicFactor": 0.0
      }
    }
  ],
  "meshes": [
    {
      "name": "Object_0",
      "primitives": [
        {
          "attributes": {
            "NORMAL": 1,
            "POSITION": 0,
            "TEXCOORD_0": 2
          },
          "indices": 3,
          "material": 0,
          "mode": 4
        }
      ]
    },
    {
      "name": "Object_1",
      "primitives": [
        {
          "attributes": {
            "NORMAL": 5,
            "POSITION": 4,
            "TEXCOORD_0": 6
          },
          "indices": 7,
          "material": 0,
          "mode": 4
        }
      ]
    },
    {
      "name": "Object_2",
      "primitives": [
        {
          "attributes": {
            "NORMAL": 9,
            "POSITION": 8,
            "TEXCOORD_0": 10
          },
          "indices": 11,
          "material": 0,
          "mode": 4
        }
      ]
    }
  ],
  "nodes": [
    {
      "children": [
        1
      ],
      "matrix": [
        -0.013047289875879775,
        0.07358546256047882,
        0.018223843428119908,
        0.0,
        -0.002147928103584121,
        0.01812552097792743,
        -0.07472624965425068,
        0.0,
        -0.07577806534994913,
        -0.0131835403676962,
        -0.0010196242431468564,
        0.0,
        -1.9460116624832153,
        6.275982856750488,
        0.8983481526374831,
        1.0
      ],
      "name": "Sketchfab_model"
    },
    {
      "children": [
        2,
        3,
        4
      ],
      "name": "3D Model.obj.cleaner.materialmerger.gles"
    },
    {
      "mesh": 0,
      "name": "Object_2"
    },
    {
      "mesh": 1,
      "name": "Object_3"
    },
    {
      "mesh": 2,
      "name": "Object_4"
    }
  ],
  "samplers": [
    {
      "magFilter": 9729,
      "minFilter": 9987,
      "wrapS": 10497,
      "wrapT": 10497
    }
  ],
  "scene": 0,
  "scenes": [
    {
      "name": "Sketchfab_Scene",
      "nodes": [
        0
      ]
    }
  ],
  "textures": [
    {
      "sampler": 0,
      "source": 0
    }
  ]
}
